<mxfile host="app.diagrams.net" agent="Mozilla/5.0 (Macintosh; Intel Mac OS X 10_15_7) AppleWebKit/537.36 (KHTML, like Gecko) Chrome/128.0.0.0 Safari/537.36" version="24.7.16" pages="3">
  <diagram name="pipe-stream" id="CoODof0lJq01r3nzlX5Z">
    <mxGraphModel dx="984" dy="540" grid="1" gridSize="10" guides="1" tooltips="1" connect="1" arrows="1" fold="1" page="1" pageScale="1" pageWidth="850" pageHeight="1100" math="0" shadow="0">
      <root>
        <mxCell id="0" />
        <mxCell id="1" parent="0" />
        <mxCell id="BV9Wk6m6ZbsFYEGFmmOW-8" value="" style="rounded=0;whiteSpace=wrap;html=1;" vertex="1" parent="1">
          <mxGeometry x="53" y="120" width="787" height="350" as="geometry" />
        </mxCell>
        <mxCell id="BV9Wk6m6ZbsFYEGFmmOW-1" value="Client" style="outlineConnect=0;dashed=0;verticalLabelPosition=bottom;verticalAlign=top;align=center;html=1;shape=mxgraph.aws3.management_console;fillColor=#D2D3D3;gradientColor=none;" vertex="1" parent="1">
          <mxGeometry x="110" y="180" width="63" height="63" as="geometry" />
        </mxCell>
        <mxCell id="BV9Wk6m6ZbsFYEGFmmOW-2" value="&lt;b&gt;M3U8&lt;/b&gt;&amp;nbsp;playlist file" style="html=1;shadow=1;dashed=0;align=center;verticalAlign=middle;shape=mxgraph.arrows2.arrow;dy=0;dx=10;notch=10;fillColor=#fff2cc;strokeColor=#d6b656;" vertex="1" parent="1">
          <mxGeometry x="210" y="170" width="210" height="30" as="geometry" />
        </mxCell>
        <mxCell id="BV9Wk6m6ZbsFYEGFmmOW-3" value="Stream data" style="html=1;shadow=1;dashed=0;align=center;verticalAlign=middle;shape=mxgraph.arrows2.arrow;dy=0;dx=10;notch=10;rotation=0;direction=west;fillColor=#dae8fc;strokeColor=#6c8ebf;" vertex="1" parent="1">
          <mxGeometry x="210" y="240" width="210" height="30" as="geometry" />
        </mxCell>
        <mxCell id="BV9Wk6m6ZbsFYEGFmmOW-4" value="Lambda&lt;br&gt;Function in Go" style="sketch=0;outlineConnect=0;fontColor=#232F3E;gradientColor=none;strokeColor=#232F3E;fillColor=#ffffff;dashed=0;verticalLabelPosition=bottom;verticalAlign=top;align=center;html=1;fontSize=12;fontStyle=0;aspect=fixed;shape=mxgraph.aws4.resourceIcon;resIcon=mxgraph.aws4.lambda_function;" vertex="1" parent="1">
          <mxGeometry x="460" y="161.5" width="100" height="100" as="geometry" />
        </mxCell>
        <mxCell id="BV9Wk6m6ZbsFYEGFmmOW-6" style="edgeStyle=orthogonalEdgeStyle;rounded=0;orthogonalLoop=1;jettySize=auto;html=1;endArrow=none;endFill=0;" edge="1" parent="1" source="BV9Wk6m6ZbsFYEGFmmOW-5" target="BV9Wk6m6ZbsFYEGFmmOW-4">
          <mxGeometry relative="1" as="geometry" />
        </mxCell>
        <mxCell id="BV9Wk6m6ZbsFYEGFmmOW-5" value="&lt;b&gt;ffmpeg&lt;/b&gt; layer" style="rounded=1;whiteSpace=wrap;html=1;fillColor=#f5f5f5;fontColor=#333333;strokeColor=#666666;" vertex="1" parent="1">
          <mxGeometry x="640" y="195.75" width="120" height="31.5" as="geometry" />
        </mxCell>
        <mxCell id="BV9Wk6m6ZbsFYEGFmmOW-7" value="&lt;h1&gt;Steps&lt;/h1&gt;&lt;p&gt;1. &lt;b&gt;Transcode&lt;/b&gt; video to .mp4&lt;/p&gt;&lt;p&gt;2. &lt;b&gt;Create&lt;/b&gt; a pipe&lt;/p&gt;&lt;p&gt;3. &lt;b&gt;Pipe .mp4 to response&lt;/b&gt; in a go routine&lt;/p&gt;" style="text;html=1;strokeColor=none;fillColor=none;spacing=5;spacingTop=-20;whiteSpace=wrap;overflow=hidden;rounded=0;" vertex="1" parent="1">
          <mxGeometry x="460" y="310" width="190" height="140" as="geometry" />
        </mxCell>
      </root>
    </mxGraphModel>
  </diagram>
  <diagram id="AW2DqkFzi70gLB8tTnOI" name="sample-architecture">
    <mxGraphModel dx="984" dy="540" grid="1" gridSize="10" guides="1" tooltips="1" connect="1" arrows="1" fold="1" page="1" pageScale="1" pageWidth="850" pageHeight="1100" math="0" shadow="0">
      <root>
        <mxCell id="0" />
        <mxCell id="1" parent="0" />
        <mxCell id="GFkvg5ANi--x_wL7U5BL-4" value="" style="rounded=0;whiteSpace=wrap;html=1;" vertex="1" parent="1">
          <mxGeometry x="90" y="119.5" width="870" height="260.5" as="geometry" />
        </mxCell>
        <mxCell id="irceOZtnGeI7if_UYRjF-1" value="Client&lt;br&gt;" style="outlineConnect=0;dashed=0;verticalLabelPosition=bottom;verticalAlign=top;align=center;html=1;shape=mxgraph.aws3.management_console;fillColor=#D2D3D3;gradientColor=none;" vertex="1" parent="1">
          <mxGeometry x="130" y="215.5" width="63" height="63" as="geometry" />
        </mxCell>
        <mxCell id="irceOZtnGeI7if_UYRjF-2" value="Cloudfront" style="outlineConnect=0;dashed=0;verticalLabelPosition=bottom;verticalAlign=top;align=center;html=1;shape=mxgraph.aws3.cloudfront;fillColor=#F58536;gradientColor=none;" vertex="1" parent="1">
          <mxGeometry x="480" y="179.5" width="76.5" height="93" as="geometry" />
        </mxCell>
        <mxCell id="irceOZtnGeI7if_UYRjF-3" value="Lambda URLs" style="outlineConnect=0;dashed=0;verticalLabelPosition=bottom;verticalAlign=top;align=center;html=1;shape=mxgraph.aws3.lambda_function;fillColor=#F58534;gradientColor=none;" vertex="1" parent="1">
          <mxGeometry x="830" y="200.5" width="69" height="72" as="geometry" />
        </mxCell>
        <mxCell id="xHi8aZ_TaEKgKTP6Ja65-1" value="&lt;b&gt;.mp4 URL&lt;/b&gt;" style="html=1;shadow=1;dashed=0;align=center;verticalAlign=middle;shape=mxgraph.arrows2.arrow;dy=0;dx=10;notch=10;fillColor=#fff2cc;strokeColor=#d6b656;" vertex="1" parent="1">
          <mxGeometry x="240" y="185.5" width="210" height="30" as="geometry" />
        </mxCell>
        <mxCell id="GFkvg5ANi--x_wL7U5BL-1" value="Stream data&lt;br&gt;(cached)" style="html=1;shadow=1;dashed=0;align=center;verticalAlign=middle;shape=mxgraph.arrows2.arrow;dy=0;dx=10;notch=10;rotation=0;direction=west;fillColor=#dae8fc;strokeColor=#6c8ebf;" vertex="1" parent="1">
          <mxGeometry x="240" y="257.5" width="210" height="30" as="geometry" />
        </mxCell>
        <mxCell id="GFkvg5ANi--x_wL7U5BL-2" value="&lt;b&gt;If cache miss, &lt;/b&gt;fetch upstream" style="html=1;shadow=1;dashed=0;align=center;verticalAlign=middle;shape=mxgraph.arrows2.arrow;dy=0;dx=10;notch=10;fillColor=#fff2cc;strokeColor=#d6b656;" vertex="1" parent="1">
          <mxGeometry x="580" y="185.5" width="210" height="30" as="geometry" />
        </mxCell>
        <mxCell id="GFkvg5ANi--x_wL7U5BL-3" value="Stream data" style="html=1;shadow=1;dashed=0;align=center;verticalAlign=middle;shape=mxgraph.arrows2.arrow;dy=0;dx=10;notch=10;rotation=0;direction=west;fillColor=#dae8fc;strokeColor=#6c8ebf;" vertex="1" parent="1">
          <mxGeometry x="580" y="268" width="210" height="30" as="geometry" />
        </mxCell>
      </root>
    </mxGraphModel>
  </diagram>
  <diagram id="LyL8v-ZeJDZ_nIBxeI1q" name="Page-3">
    <mxGraphModel dx="984" dy="540" grid="1" gridSize="10" guides="1" tooltips="1" connect="1" arrows="1" fold="1" page="1" pageScale="1" pageWidth="850" pageHeight="1100" math="0" shadow="0">
      <root>
        <mxCell id="0" />
        <mxCell id="1" parent="0" />
        <mxCell id="PGN14ZF7nXYmGGGTVh95-7" value="" style="rounded=0;whiteSpace=wrap;html=1;" vertex="1" parent="1">
          <mxGeometry x="120" y="103.5" width="600" height="236.5" as="geometry" />
        </mxCell>
        <mxCell id="PGN14ZF7nXYmGGGTVh95-1" value="&lt;b style=&quot;font-size: 20px;&quot;&gt;Response stream&lt;/b&gt;" style="verticalLabelPosition=bottom;html=1;verticalAlign=top;strokeWidth=2;shape=mxgraph.lean_mapping.push_arrow;direction=west;fontSize=20;" vertex="1" parent="1">
          <mxGeometry x="320" y="191.5" width="190" height="42.5" as="geometry" />
        </mxCell>
        <mxCell id="PGN14ZF7nXYmGGGTVh95-4" value="" style="outlineConnect=0;dashed=0;verticalLabelPosition=bottom;verticalAlign=top;align=center;html=1;shape=mxgraph.aws3.cloud_2;fillColor=#F58534;gradientColor=none;" vertex="1" parent="1">
          <mxGeometry x="120" y="103.5" width="35" height="35" as="geometry" />
        </mxCell>
        <mxCell id="PGN14ZF7nXYmGGGTVh95-5" value="Client" style="outlineConnect=0;dashed=0;verticalLabelPosition=bottom;verticalAlign=top;align=center;html=1;shape=mxgraph.aws3.management_console;fillColor=#D2D3D3;gradientColor=none;" vertex="1" parent="1">
          <mxGeometry x="180" y="171" width="63" height="63" as="geometry" />
        </mxCell>
        <mxCell id="PGN14ZF7nXYmGGGTVh95-6" value="Lambda in Go" style="sketch=0;points=[[0,0,0],[0.25,0,0],[0.5,0,0],[0.75,0,0],[1,0,0],[0,1,0],[0.25,1,0],[0.5,1,0],[0.75,1,0],[1,1,0],[0,0.25,0],[0,0.5,0],[0,0.75,0],[1,0.25,0],[1,0.5,0],[1,0.75,0]];outlineConnect=0;fontColor=#232F3E;fillColor=#ED7100;strokeColor=#ffffff;dashed=0;verticalLabelPosition=bottom;verticalAlign=top;align=center;html=1;fontSize=12;fontStyle=0;aspect=fixed;shape=mxgraph.aws4.resourceIcon;resIcon=mxgraph.aws4.lambda;" vertex="1" parent="1">
          <mxGeometry x="580" y="162" width="78" height="78" as="geometry" />
        </mxCell>
      </root>
    </mxGraphModel>
  </diagram>
</mxfile>
